<svg xmlns="http://www.w3.org/2000/svg" viewBox="0 0 464.93 158.34"><defs><style>.cls-1{fill:#fff;}.cls-2{fill:#99002a;}</style></defs><title>Asset 16</title><g id="Layer_2" data-name="Layer 2"><g id="Layer_1-2" data-name="Layer 1"><path class="cls-1" d="M18.27,46.75c9.76,0,18.27,1,26,6.5a32.46,32.46,0,0,1,13.44,26.9c0,11.1-4.83,20.7-14.07,26.9-8.19,5.5-15.85,6.4-25.62,6.4H0V46.75Zm-4.62,55.5h4.2c3.46,0,11-.2,17.11-4.4,5.56-3.8,8.71-10.6,8.71-17.7s-3-13.8-8.61-17.8S22.47,58,17.85,58h-4.2Z"/><path class="cls-1" d="M109.62,99.46H81.37l-6.19,14H60.38l30.13-66.7h10.71l29.29,66.7h-14.7Zm-4-10.6-10-24-10,24Z"/><path class="cls-1" d="M138.7,113.46V46.75h9.45l42.63,44.5V46.75h13.65v66.7H195l-42.63-44.6v44.6Z"/><path class="cls-1" d="M282,58H258.51v14.9h22v11.2h-22v29.4H244.86V46.75H282Z"/><path class="cls-1" d="M307.44,46.75v66.7H293.79V46.75Z"/><path class="cls-1" d="M323.4,113.46V46.75h9.45l42.63,44.5V46.75h13.65v66.7h-9.45L337,68.85v44.6Z"/><path class="cls-1" d="M418.74,75l25.72-28.2h17.22l-29.61,30.8,31.18,35.9H445.19l-24.88-29.9-1.58,1.5v28.4H405.09V46.75h13.65Z"/><path class="cls-1" d="M7,133.79l6.73,16.13,6.73-16.13H25.8l-10.66,24H12.2l-10.58-24Z"/><path class="cls-1" d="M87.34,133.79v24H82.43v-24Z"/><path class="cls-1" d="M159.16,139.26a5,5,0,0,0-4.12-2.05c-2.65,0-3.48,1.58-3.48,2.81a2,2,0,0,0,.79,1.62,8.77,8.77,0,0,0,3,1.37,15,15,0,0,1,5.1,2.41,6.39,6.39,0,0,1,2.15,5c0,4.68-3.55,7.88-8.77,7.88a10.48,10.48,0,0,1-8.69-4.54l3.21-2.92a6,6,0,0,0,5.29,3.2c2.23,0,3.89-1.3,3.89-3.31a2.73,2.73,0,0,0-1-2.16,11.55,11.55,0,0,0-3.89-1.76,12.35,12.35,0,0,1-4.2-2.09,5.48,5.48,0,0,1-2-4.46c0-3.53,2.49-7.06,8.09-7.06a10,10,0,0,1,7.14,2.81Z"/><path class="cls-1" d="M225.54,133.79v15.08a5.07,5.07,0,0,0,1.21,3.56,5.67,5.67,0,0,0,8,0,5.07,5.07,0,0,0,1.21-3.56V133.79h4.91v14.69a9.76,9.76,0,0,1-1.89,6.41c-1.81,2.27-5,3.46-8.24,3.46s-6.43-1.19-8.24-3.46a9.76,9.76,0,0,1-1.89-6.41V133.79Z"/><path class="cls-1" d="M315.13,152.76H305l-2.23,5H297.4l10.85-24h3.86l10.54,24h-5.29Zm-1.44-3.82-3.59-8.64-3.59,8.64Z"/><path class="cls-1" d="M384.19,133.79v20H392v4h-12.7v-24Z"/><path class="cls-1" d="M461.45,139.26a5,5,0,0,0-4.12-2.05c-2.65,0-3.48,1.58-3.48,2.81a2,2,0,0,0,.79,1.62,8.77,8.77,0,0,0,3,1.37,15,15,0,0,1,5.1,2.41,6.39,6.39,0,0,1,2.15,5c0,4.68-3.55,7.88-8.77,7.88a10.48,10.48,0,0,1-8.69-4.54l3.21-2.92a6,6,0,0,0,5.29,3.2c2.23,0,3.89-1.3,3.89-3.31a2.73,2.73,0,0,0-1-2.16,11.55,11.55,0,0,0-3.89-1.76,12.35,12.35,0,0,1-4.2-2.09,5.48,5.48,0,0,1-2-4.46c0-3.53,2.49-7.06,8.09-7.06a10,10,0,0,1,7.14,2.81Z"/><path class="cls-2" d="M14.3,4.69l2.18,1.06a.65.65,0,0,1-.34.35,34,34,0,0,1-2.88,7.12,28.49,28.49,0,0,1,2.35,1.66l-1.53,2.75c-.63-.53-1.7-1.34-2.44-1.87a20,20,0,0,1-7,6.24A8.59,8.59,0,0,0,2.54,19.8a18.91,18.91,0,0,0,6.8-5.52,29.26,29.26,0,0,0-3.61-2l1.49-2.17A31.15,31.15,0,0,1,11,11.9a21.63,21.63,0,0,0,1.85-4.44H7.07a24.82,24.82,0,0,1-4.41,5.66A16.41,16.41,0,0,0,.48,11.3a20.94,20.94,0,0,0,6.32-10l3.28,1c-.08.23-.31.37-.69.37-.21.62-.57,1.43-.86,2.08h5.54Zm.94.12a20.65,20.65,0,0,0-2.41-3.17L14,.62a17.29,17.29,0,0,1,2.46,3.14Zm3-.65a17.74,17.74,0,0,0-2.37-3.1L17,0a18.2,18.2,0,0,1,2.5,3.07Z"/><path class="cls-2" d="M69.88,8.55a29.55,29.55,0,0,0-6-3.17l1.24-2.52a26.1,26.1,0,0,1,6.15,3Zm-5.48,10c7.08-2.4,11.95-6.93,14.38-13.28a15.77,15.77,0,0,0,2.46,1.71A25.19,25.19,0,0,1,66.67,20.86a.81.81,0,0,1-.36.6Z"/><path class="cls-2" d="M141.07,3.33l2.35,1.25A1,1,0,0,1,143,5c-1.87,8.66-5.65,13.7-12.53,16.61a19.7,19.7,0,0,0-1.81-2.4,16.62,16.62,0,0,0,11-12.73H127V3.67h13.61Z"/><path class="cls-2" d="M197.44,12.91a49.2,49.2,0,0,1-6.09,3.86,9.39,9.39,0,0,0-1.28-1.8,40.1,40.1,0,0,0,12.35-9.52l2.27,1.73a.62.62,0,0,1-.63.16,48.85,48.85,0,0,1-4.47,4.07l.57.23a.61.61,0,0,1-.48.35v9.86h-2.23Z"/><path class="cls-2" d="M258.88,8.55a29.55,29.55,0,0,0-6-3.17l1.24-2.52a26.1,26.1,0,0,1,6.15,3Zm-5.48,10c7.08-2.4,11.95-6.93,14.38-13.28a15.77,15.77,0,0,0,2.46,1.71,25.19,25.19,0,0,1-14.57,13.93.81.81,0,0,1-.36.6Z"/><path class="cls-2" d="M322.62,5.34V1.22l3.34.21a.73.73,0,0,1-.67.6v3.3h4.26l.48-.21,2.31,1a.73.73,0,0,1-.34.39c-1.24,8.29-4.24,12.75-10.73,15.29a16.9,16.9,0,0,0-1.79-2.47c5.84-2.17,8.52-5.82,9.24-11.25h-9.64V13h-2.65V5.34Zm6.95-.72a19.41,19.41,0,0,0-2-3.28l1.24-.88a17.24,17.24,0,0,1,2.14,3.26Zm3.3-.49a20.27,20.27,0,0,0-2-3.26L332,0a17.94,17.94,0,0,1,2.14,3.23Z"/><path class="cls-2" d="M386.44,12.91a49.2,49.2,0,0,1-6.09,3.86,9.39,9.39,0,0,0-1.28-1.8,40.1,40.1,0,0,0,12.35-9.52l2.27,1.73a.62.62,0,0,1-.63.16,48.85,48.85,0,0,1-4.47,4.07l.57.23a.61.61,0,0,1-.48.35v9.86h-2.23Z"/><path class="cls-2" d="M454.29,2.7,456.37,4a.66.66,0,0,1-.38.39A38.58,38.58,0,0,1,452.06,12a88.26,88.26,0,0,1,7,7.12l-2.33,2.26a70.2,70.2,0,0,0-6.4-7.09,35.61,35.61,0,0,1-7.43,7.07,14.36,14.36,0,0,0-2-2.22A29.06,29.06,0,0,0,452.34,5.64h-9.47V2.86h11Z"/></g></g></svg>