<svg xmlns="http://www.w3.org/2000/svg" viewBox="0 0 530.68 180.19"><defs><style>.cls-1{fill:#fff;}.cls-2{fill:#99002a;}</style></defs><title>dfv_rw</title><g id="Layer_2" data-name="Layer 2"><g id="Layer_1-2" data-name="Layer 1"><path class="cls-1" d="M19.31,49.72c9.76,0,18.27,1,26,6.5a32.46,32.46,0,0,1,13.44,26.9c0,11.1-4.83,20.7-14.07,26.9-8.19,5.5-15.85,6.4-25.62,6.4H1V49.72Zm-4.62,55.5h4.2c3.46,0,11-.2,17.11-4.4,5.56-3.8,8.71-10.6,8.71-17.7s-3-13.8-8.61-17.8-12.6-4.4-17.22-4.4h-4.2Z"/><path class="cls-1" d="M117.93,102.42H89.69l-6.2,14H68.69l30.13-66.7h10.71l29.29,66.7h-14.7Zm-4-10.6-10-24-10,24Z"/><path class="cls-1" d="M156.19,116.42V49.72h9.45l42.63,44.5V49.72h13.65v66.7h-9.45l-42.63-44.6v44.6Z"/><path class="cls-1" d="M320.51,60.92H297v14.9h22V87H297v29.4H283.34V49.72h37.17Z"/><path class="cls-1" d="M355,49.72v66.7H341.34V49.72Z"/><path class="cls-1" d="M380.19,116.42V49.72h9.45l42.63,44.5V49.72h13.65v66.7h-9.45l-42.63-44.6v44.6Z"/><path class="cls-1" d="M484.95,77.92l25.72-28.2h17.22l-29.61,30.8,31.18,35.9H511.41l-24.88-29.9L484.95,88v28.4H471.3V49.72h13.65Z"/><path class="cls-1" d="M9.62,146.09,19,168.49l9.35-22.4h7.46L21,179.44h-4.1L2.16,146.09Z"/><path class="cls-1" d="M101.81,146.09v33.35H95V146.09Z"/><path class="cls-1" d="M182.14,153.69a7,7,0,0,0-5.72-2.85c-3.68,0-4.83,2.2-4.83,3.9a2.76,2.76,0,0,0,1.1,2.25c.84.75,2,1.15,4.2,1.9,2.73.9,5.3,1.8,7.09,3.35a8.87,8.87,0,0,1,3,7c0,6.5-4.94,11-12.18,11a14.56,14.56,0,0,1-12.08-6.3l4.46-4.05a8.27,8.27,0,0,0,7.35,4.45c3.1,0,5.41-1.8,5.41-4.6a3.79,3.79,0,0,0-1.36-3c-1.31-1.15-3.41-1.8-5.41-2.45a17.17,17.17,0,0,1-5.83-2.9,7.62,7.62,0,0,1-2.78-6.2c0-4.9,3.47-9.8,11.24-9.8a13.85,13.85,0,0,1,9.92,3.9Z"/><path class="cls-1" d="M254.9,146.09v21a7,7,0,0,0,1.68,5,7.88,7.88,0,0,0,11.13,0,7,7,0,0,0,1.68-5v-21h6.83v20.4c0,3.15-.52,6.35-2.62,8.9-2.52,3.15-6.93,4.8-11.45,4.8s-8.93-1.65-11.45-4.8c-2.1-2.55-2.63-5.75-2.63-8.9v-20.4Z"/><path class="cls-1" d="M359.9,172.44H345.78l-3.1,7h-7.4l15.07-33.35h5.36l14.65,33.35H363Zm-2-5.3-5-12-5,12Z"/><path class="cls-1" d="M436.39,146.09v27.75h10.82v5.6H429.57V146.09Z"/><path class="cls-1" d="M524.28,153.69a7,7,0,0,0-5.72-2.85c-3.68,0-4.83,2.2-4.83,3.9a2.75,2.75,0,0,0,1.1,2.25c.84.75,2,1.15,4.2,1.9,2.73.9,5.3,1.8,7.09,3.35a8.87,8.87,0,0,1,3,7c0,6.5-4.94,11-12.18,11a14.56,14.56,0,0,1-12.08-6.3l4.46-4.05a8.27,8.27,0,0,0,7.35,4.45c3.1,0,5.41-1.8,5.41-4.6a3.79,3.79,0,0,0-1.37-3c-1.31-1.15-3.41-1.8-5.41-2.45a17.17,17.17,0,0,1-5.83-2.9,7.62,7.62,0,0,1-2.78-6.2c0-4.9,3.47-9.8,11.24-9.8a13.85,13.85,0,0,1,9.92,3.9Z"/><path class="cls-2" d="M14.48,4.91,16.77,6a.68.68,0,0,1-.35.36,35.66,35.66,0,0,1-3,7.45,29.89,29.89,0,0,1,2.46,1.74l-1.61,2.88c-.66-.56-1.78-1.4-2.55-2A20.9,20.9,0,0,1,4.33,23a9,9,0,0,0-2.18-2.3A19.8,19.8,0,0,0,9.29,15,30.62,30.62,0,0,0,5.5,12.9l1.56-2.27A32.67,32.67,0,0,1,11,12.46a22.7,22.7,0,0,0,1.94-4.65h-6a26,26,0,0,1-4.62,5.93A17,17,0,0,0,0,11.83,21.93,21.93,0,0,0,6.62,1.4l3.43,1c-.09.24-.33.39-.73.39-.22.65-.59,1.5-.9,2.18h5.81Zm1,.12a21.58,21.58,0,0,0-2.53-3.32L14.17.65a18,18,0,0,1,2.57,3.29Zm3.17-.68a18.56,18.56,0,0,0-2.49-3.24L17.34,0A19.06,19.06,0,0,1,20,3.27Z"/><path class="cls-2" d="M81.68,9a31,31,0,0,0-6.29-3.32L76.69,3A27.39,27.39,0,0,1,83.13,6.2ZM75.94,19.38C83.35,16.87,88.46,12.12,91,5.47a16.5,16.5,0,0,0,2.57,1.79A26.39,26.39,0,0,1,78.31,21.85a.85.85,0,0,1-.37.63Z"/><path class="cls-2" d="M164.85,3.48l2.46,1.31a1.07,1.07,0,0,1-.44.41c-2,9.07-5.92,14.35-13.14,17.4a20.57,20.57,0,0,0-1.89-2.52A17.41,17.41,0,0,0,163.33,6.75H150.11V3.85h14.26Z"/><path class="cls-2" d="M229.87,13.53a51.49,51.49,0,0,1-6.38,4,9.87,9.87,0,0,0-1.34-1.89,42,42,0,0,0,12.94-10l2.38,1.82a.65.65,0,0,1-.66.17A51.07,51.07,0,0,1,232.12,12l.59.24a.64.64,0,0,1-.51.36V22.89h-2.33Z"/><path class="cls-2" d="M300.9,9a31,31,0,0,0-6.29-3.32L295.91,3a27.38,27.38,0,0,1,6.45,3.19Zm-5.74,10.43c7.42-2.52,12.52-7.26,15.07-13.92a16.51,16.51,0,0,0,2.58,1.79,26.39,26.39,0,0,1-15.27,14.59.85.85,0,0,1-.37.63Z"/><path class="cls-2" d="M383.25,4.94l2.29,1.48a1.33,1.33,0,0,1-.48.46c-2.49,7.91-5.92,12.68-11.86,16a11,11,0,0,0-2.07-2.32A19.91,19.91,0,0,0,381.49,8H375a24.84,24.84,0,0,1-4.69,5.54,15.19,15.19,0,0,0-2.27-2A23.79,23.79,0,0,0,375,1.31l3.5.9a.69.69,0,0,1-.73.44c-.35.87-.79,1.72-1.17,2.52h6.27Z"/><path class="cls-2" d="M449.49,5.59V1.28l3.5.22a.77.77,0,0,1-.7.63V5.59h4.47l.51-.22,2.42,1.06a.76.76,0,0,1-.35.41c-1.3,8.69-4.45,13.36-11.24,16a17.72,17.72,0,0,0-1.87-2.59c6.12-2.27,8.93-6.1,9.68-11.79h-10.1v5.08H443v-8Zm7.28-.75a20.35,20.35,0,0,0-2.13-3.44l1.3-.92a18.09,18.09,0,0,1,2.24,3.41Zm3.45-.51A21.18,21.18,0,0,0,458.09.92L459.37,0a18.81,18.81,0,0,1,2.24,3.39Z"/><path class="cls-2" d="M523.09,13.53a51.49,51.49,0,0,1-6.38,4,9.87,9.87,0,0,0-1.34-1.89,42,42,0,0,0,12.94-10l2.38,1.82a.65.65,0,0,1-.66.17A51.07,51.07,0,0,1,525.33,12c.24.1.44.17.59.24a.64.64,0,0,1-.51.36V22.89h-2.33Z"/></g></g></svg>