<svg xmlns="http://www.w3.org/2000/svg" viewBox="0 0 463.93 175.37"><defs><style>.cls-1{fill:#99002a;}</style></defs><title>Asset 15</title><g id="Layer_2" data-name="Layer 2"><g id="Layer_1-2" data-name="Layer 1"><path d="M18.27,51.42c9.76,0,18.27,1,26,6.82,8.5,6.4,13.44,16.59,13.44,28.24s-4.83,21.73-14.07,28.24c-8.19,5.77-15.85,6.72-25.62,6.72H0v-70ZM13.65,109.7h4.2c3.46,0,11-.21,17.11-4.62,5.56-4,8.71-11.13,8.71-18.58S40.63,72,35.07,67.8s-12.6-4.62-17.22-4.62h-4.2Z"/><path d="M109.62,106.76H81.37l-6.19,14.7H60.38l30.13-70h10.71l29.29,70h-14.7Zm-4-11.13-10-25.2-10,25.2Z"/><path d="M138.7,121.46v-70h9.45l42.63,46.72V51.42h13.65v70H195L152.35,74.63v46.83Z"/><path d="M282,63.18H258.51V78.83h22V90.59h-22v30.87H244.86v-70H282Z"/><path d="M307.44,51.42v70H293.79v-70Z"/><path d="M323.4,121.46v-70h9.45l42.63,46.72V51.42h13.65v70h-9.45L337,74.63v46.83Z"/><path d="M418.74,81l25.72-29.61h17.22L432.07,83.76l31.18,37.69H445.19L420.31,90.06l-1.58,1.57v29.82H405.09v-70h13.65Z"/><path d="M6,149.59l6.73,16.93,6.73-16.93h5.37L14.15,174.8H11.2L.62,149.59Z"/><path d="M86.35,149.59V174.8H81.43V149.59Z"/><path d="M158.16,155.34a4.92,4.92,0,0,0-4.12-2.15c-2.65,0-3.48,1.66-3.48,2.95a2.12,2.12,0,0,0,.79,1.7,8.59,8.59,0,0,0,3,1.44,14.66,14.66,0,0,1,5.1,2.53,6.86,6.86,0,0,1,2.15,5.29c0,4.91-3.55,8.28-8.77,8.28a10.38,10.38,0,0,1-8.69-4.76l3.21-3.06a5.91,5.91,0,0,0,5.29,3.36c2.23,0,3.89-1.36,3.89-3.48a2.93,2.93,0,0,0-1-2.27,11.3,11.3,0,0,0-3.89-1.85,12.13,12.13,0,0,1-4.2-2.19,5.87,5.87,0,0,1-2-4.69c0-3.7,2.49-7.41,8.09-7.41a9.69,9.69,0,0,1,7.14,2.95Z"/><path d="M224.54,149.59v15.84a5.48,5.48,0,0,0,1.21,3.74,5.48,5.48,0,0,0,8,0,5.48,5.48,0,0,0,1.21-3.74V149.59h4.91V165a10.61,10.61,0,0,1-1.89,6.73,11.17,11.17,0,0,1-16.48,0,10.61,10.61,0,0,1-1.89-6.73V149.59Z"/><path d="M314.13,169.51H304l-2.23,5.29H296.4l10.85-25.21h3.86l10.54,25.21h-5.29Zm-1.44-4-3.59-9.07-3.59,9.07Z"/><path d="M383.19,149.59v21H391v4.23h-12.7V149.59Z"/><path d="M460.45,155.34a4.92,4.92,0,0,0-4.12-2.15c-2.65,0-3.48,1.66-3.48,2.95a2.12,2.12,0,0,0,.79,1.7,8.59,8.59,0,0,0,3,1.44,14.66,14.66,0,0,1,5.1,2.53,6.86,6.86,0,0,1,2.15,5.29c0,4.91-3.55,8.28-8.77,8.28a10.38,10.38,0,0,1-8.69-4.76l3.21-3.06a5.91,5.91,0,0,0,5.29,3.36c2.23,0,3.89-1.36,3.89-3.48a2.93,2.93,0,0,0-1-2.27,11.3,11.3,0,0,0-3.89-1.85,12.13,12.13,0,0,1-4.2-2.19,5.87,5.87,0,0,1-2-4.69c0-3.7,2.49-7.41,8.09-7.41A9.69,9.69,0,0,1,463,152Z"/><path class="cls-1" d="M15.3,4.69l2.18,1.06a.65.65,0,0,1-.34.35,34,34,0,0,1-2.88,7.12,28.49,28.49,0,0,1,2.35,1.66l-1.53,2.75c-.63-.53-1.7-1.34-2.44-1.87a19.94,19.94,0,0,1-7,6.24A8.6,8.6,0,0,0,3.54,19.8a18.9,18.9,0,0,0,6.8-5.52,29.22,29.22,0,0,0-3.61-2l1.49-2.17A31.19,31.19,0,0,1,12,11.9a21.66,21.66,0,0,0,1.85-4.44H8.07a24.8,24.8,0,0,1-4.41,5.66A16.38,16.38,0,0,0,1.48,11.3a20.94,20.94,0,0,0,6.32-10l3.28,1c-.08.23-.31.37-.69.37-.21.62-.57,1.43-.86,2.08h5.54Zm.94.12a20.65,20.65,0,0,0-2.41-3.17L15,.62a17.29,17.29,0,0,1,2.46,3.14Zm3-.65a17.72,17.72,0,0,0-2.37-3.1L18,0a18.18,18.18,0,0,1,2.5,3.07Z"/><path class="cls-1" d="M70.89,8.55a29.55,29.55,0,0,0-6-3.17l1.24-2.52a26.12,26.12,0,0,1,6.15,3Zm-5.48,10c7.08-2.4,11.95-6.93,14.38-13.28a15.77,15.77,0,0,0,2.46,1.71A25.19,25.19,0,0,1,67.67,20.86a.82.82,0,0,1-.36.6Z"/><path class="cls-1" d="M142.07,3.33l2.35,1.25A1,1,0,0,1,144,5c-1.87,8.66-5.65,13.7-12.53,16.61a19.65,19.65,0,0,0-1.81-2.4,16.61,16.61,0,0,0,11-12.73H128V3.67h13.61Z"/><path class="cls-1" d="M198.44,12.91a49.2,49.2,0,0,1-6.09,3.86,9.42,9.42,0,0,0-1.28-1.8,40.1,40.1,0,0,0,12.35-9.52l2.27,1.73a.62.62,0,0,1-.63.16,48.84,48.84,0,0,1-4.47,4.07l.57.23a.61.61,0,0,1-.48.35v9.86h-2.23Z"/><path class="cls-1" d="M259.89,8.55a29.55,29.55,0,0,0-6-3.17l1.24-2.52a26.12,26.12,0,0,1,6.15,3Zm-5.48,10c7.08-2.4,11.95-6.93,14.38-13.28a15.77,15.77,0,0,0,2.46,1.71,25.19,25.19,0,0,1-14.57,13.93.82.82,0,0,1-.36.6Z"/><path class="cls-1" d="M323.62,5.34V1.22l3.34.21a.74.74,0,0,1-.67.6v3.3h4.26l.48-.21,2.31,1a.73.73,0,0,1-.34.39c-1.24,8.29-4.24,12.75-10.73,15.29a16.9,16.9,0,0,0-1.78-2.47c5.84-2.17,8.52-5.82,9.24-11.25h-9.64V13h-2.65V5.34Zm6.95-.72a19.45,19.45,0,0,0-2-3.28l1.24-.88a17.29,17.29,0,0,1,2.14,3.26Zm3.3-.49a20.23,20.23,0,0,0-2-3.26L333,0a17.94,17.94,0,0,1,2.14,3.23Z"/><path class="cls-1" d="M387.44,12.91a49.2,49.2,0,0,1-6.09,3.86,9.42,9.42,0,0,0-1.28-1.8,40.1,40.1,0,0,0,12.35-9.52l2.27,1.73a.62.62,0,0,1-.63.16,48.84,48.84,0,0,1-4.47,4.07l.57.23a.61.61,0,0,1-.48.35v9.86h-2.23Z"/><path class="cls-1" d="M455.29,2.7,457.37,4a.67.67,0,0,1-.38.39A38.56,38.56,0,0,1,453.06,12a88.18,88.18,0,0,1,7,7.12l-2.33,2.26a70.2,70.2,0,0,0-6.4-7.09,35.61,35.61,0,0,1-7.43,7.07,14.39,14.39,0,0,0-2-2.22A29.07,29.07,0,0,0,453.34,5.64h-9.47V2.86h11Z"/></g></g></svg>