<svg xmlns="http://www.w3.org/2000/svg" viewBox="0 0 530.46 185"><defs><style>.cls-1{fill:#fff;}.cls-2{fill:#99002a;}</style></defs><title>DFV_WR</title><g id="Layer_2" data-name="Layer 2"><g id="Layer_1-2" data-name="Layer 1"><path class="cls-1" d="M18.27,54.52c9.76,0,18.27,1,26,6.5a32.46,32.46,0,0,1,13.44,26.9c0,11.1-4.83,20.7-14.07,26.9-8.19,5.5-15.85,6.4-25.62,6.4H0V54.52ZM13.65,110h4.2c3.46,0,11-.2,17.11-4.4,5.56-3.8,8.71-10.6,8.71-17.7s-3-13.8-8.61-17.8-12.6-4.4-17.22-4.4h-4.2Z"/><path class="cls-1" d="M116.89,107.23H88.65l-6.19,14H67.65l30.13-66.7h10.71l29.29,66.7h-14.7Zm-4-10.6-10-24-10,24Z"/><path class="cls-1" d="M155.15,121.23V54.52h9.45L207.23,99V54.52h13.65v66.7h-9.45L168.8,76.63v44.6Z"/><path class="cls-1" d="M319.47,65.73H295.95v14.9h22v11.2h-22v29.4H282.3V54.52h37.17Z"/><path class="cls-1" d="M354,54.52v66.7H340.3V54.52Z"/><path class="cls-1" d="M379.15,121.23V54.52h9.45L431.23,99V54.52h13.65v66.7h-9.45L392.8,76.63v44.6Z"/><path class="cls-1" d="M483.91,82.73l25.72-28.2h17.22l-29.61,30.8,31.18,35.9H510.37l-24.88-29.9-1.58,1.5v28.4H470.26V54.52h13.65Z"/><path class="cls-1" d="M8.58,150.9l9.35,22.4,9.35-22.4h7.46L19.92,184.25H15.83L1.12,150.9Z"/><path class="cls-1" d="M100.77,150.9v33.35H93.94V150.9Z"/><path class="cls-1" d="M181.1,158.5a7,7,0,0,0-5.72-2.85c-3.67,0-4.83,2.2-4.83,3.9a2.76,2.76,0,0,0,1.1,2.25c.84.75,2,1.15,4.2,1.9,2.73.9,5.3,1.8,7.09,3.35a8.87,8.87,0,0,1,3,7c0,6.5-4.94,11-12.18,11a14.56,14.56,0,0,1-12.08-6.3l4.46-4.05a8.27,8.27,0,0,0,7.35,4.45c3.1,0,5.41-1.8,5.41-4.6a3.79,3.79,0,0,0-1.36-3c-1.31-1.15-3.41-1.8-5.41-2.45a17.17,17.17,0,0,1-5.83-2.9,7.62,7.62,0,0,1-2.78-6.2c0-4.9,3.47-9.8,11.24-9.8a13.85,13.85,0,0,1,9.92,3.9Z"/><path class="cls-1" d="M253.86,150.9v21a7,7,0,0,0,1.68,5,7.88,7.88,0,0,0,11.13,0,7,7,0,0,0,1.68-5v-21h6.83v20.4c0,3.15-.52,6.35-2.62,8.9-2.52,3.15-6.93,4.8-11.45,4.8s-8.93-1.65-11.45-4.8c-2.1-2.55-2.62-5.75-2.62-8.9V150.9Z"/><path class="cls-1" d="M358.86,177.25H344.74l-3.1,7h-7.4L349.3,150.9h5.36l14.65,33.35H362Zm-2-5.3-5-12-5,12Z"/><path class="cls-1" d="M435.35,150.9v27.75h10.82v5.6H428.53V150.9Z"/><path class="cls-1" d="M523.24,158.5a7,7,0,0,0-5.72-2.85c-3.68,0-4.83,2.2-4.83,3.9a2.76,2.76,0,0,0,1.1,2.25c.84.75,2,1.15,4.2,1.9,2.73.9,5.3,1.8,7.09,3.35a8.87,8.87,0,0,1,3,7c0,6.5-4.94,11-12.18,11a14.56,14.56,0,0,1-12.08-6.3l4.46-4.05a8.27,8.27,0,0,0,7.35,4.45c3.1,0,5.41-1.8,5.41-4.6a3.79,3.79,0,0,0-1.37-3c-1.31-1.15-3.41-1.8-5.41-2.45a17.17,17.17,0,0,1-5.83-2.9,7.62,7.62,0,0,1-2.78-6.2c0-4.9,3.46-9.8,11.24-9.8a13.85,13.85,0,0,1,9.92,3.9Z"/><path class="cls-2" d="M19,6.25l2.91,1.42a.87.87,0,0,1-.45.46,45.39,45.39,0,0,1-3.84,9.49,38.05,38.05,0,0,1,3.14,2.22l-2,3.67c-.84-.71-2.27-1.79-3.25-2.5A26.6,26.6,0,0,1,6.1,29.33,11.46,11.46,0,0,0,3.33,26.4,25.2,25.2,0,0,0,12.4,19a39,39,0,0,0-4.82-2.62l2-2.9a41.58,41.58,0,0,1,5,2.34A28.93,28.93,0,0,0,17,10H9.38A33.1,33.1,0,0,1,3.5,17.5,21.89,21.89,0,0,0,.59,15.06C4.54,11.89,7.36,7,9,1.79l4.37,1.29c-.11.31-.42.49-.92.49-.28.83-.76,1.91-1.15,2.77H18.7Zm1.26.15a27.55,27.55,0,0,0-3.22-4.22L18.62.83A23.09,23.09,0,0,1,21.9,5Zm4-.86a23.68,23.68,0,0,0-3.16-4.13L22.65.06A24.26,24.26,0,0,1,26,4.16Z"/><path class="cls-2" d="M81.93,11.4a39.4,39.4,0,0,0-8-4.22l1.65-3.36a34.82,34.82,0,0,1,8.2,4.07ZM74.62,24.68C84.06,21.47,90.55,15.43,93.8,7a21,21,0,0,0,3.28,2.28A33.6,33.6,0,0,1,77.64,27.82a1.09,1.09,0,0,1-.48.8Z"/><path class="cls-2" d="M165.65,4.44l3.14,1.66a1.36,1.36,0,0,1-.56.52c-2.49,11.55-7.53,18.27-16.72,22.15a26.28,26.28,0,0,0-2.41-3.2,22.16,22.16,0,0,0,14.62-17H146.89V4.9H165Z"/><path class="cls-2" d="M229.6,17.22a65.63,65.63,0,0,1-8.12,5.15,12.62,12.62,0,0,0-1.71-2.4A53.47,53.47,0,0,0,236.24,7.27l3,2.31a.82.82,0,0,1-.84.22,65,65,0,0,1-6,5.42c.31.12.56.22.76.31a.81.81,0,0,1-.64.46V29.14h-3Z"/><path class="cls-2" d="M300.33,11.4a39.4,39.4,0,0,0-8-4.22L294,3.82a34.82,34.82,0,0,1,8.2,4.07ZM293,24.68C302.46,21.47,309,15.43,312.2,7a21,21,0,0,0,3.28,2.28A33.6,33.6,0,0,1,296,27.82a1.09,1.09,0,0,1-.48.8Z"/><path class="cls-2" d="M383.74,6.28l2.91,1.88a1.69,1.69,0,0,1-.62.59c-3.16,10.07-7.53,16.14-15.09,20.33a14,14,0,0,0-2.63-3A25.34,25.34,0,0,0,381.5,10.2h-8.23a31.66,31.66,0,0,1-6,7.05,19.36,19.36,0,0,0-2.88-2.53,30.3,30.3,0,0,0,8.79-13.06l4.45,1.14a.88.88,0,0,1-.92.55c-.45,1.11-1,2.19-1.48,3.2h8Z"/><path class="cls-2" d="M446.91,7.12V1.63l4.45.28a1,1,0,0,1-.9.8V7.12h5.68l.64-.28,3.08,1.36a1,1,0,0,1-.45.52c-1.65,11.06-5.66,17-14.31,20.39a22.5,22.5,0,0,0-2.38-3.3c7.78-2.9,11.37-7.76,12.32-15H442.2v6.47h-3.53V7.12Zm9.27-1a25.86,25.86,0,0,0-2.72-4.37L455.11.62A23.06,23.06,0,0,1,458,5Zm4.4-.65a27,27,0,0,0-2.72-4.34L459.48,0a24,24,0,0,1,2.86,4.31Z"/><path class="cls-2" d="M520.8,17.22a65.63,65.63,0,0,1-8.12,5.15A12.62,12.62,0,0,0,511,20,53.47,53.47,0,0,0,527.44,7.27l3,2.31a.82.82,0,0,1-.84.22,65,65,0,0,1-6,5.42c.31.12.56.22.76.31a.81.81,0,0,1-.64.46V29.14h-3Z"/></g></g></svg>